<?xml version="1.0" encoding="iso-8859-1"?>
<!-- Uploaded to: SVG Repo, www.svgrepo.com, Generator: SVG Repo Mixer Tools -->
<svg fill="#000000" height="800px" width="800px" version="1.1" id="Layer_1" xmlns="http://www.w3.org/2000/svg" xmlns:xlink="http://www.w3.org/1999/xlink" 
	 viewBox="0 0 512.001 512.001" xml:space="preserve">
<g>
	<g>
		<path d="M329.746,54.847l-32.154,6.39l1.777,30.089c0.37,6.275-4.002,11.933-10.169,13.159l-6.822,1.355
			c-6.545,1.301-12.973-2.721-14.692-9.141l-7.503-28.029l-14.555,2.893c-1.368,24.098,16.843,44.921,41.004,46.676
			c24.4,1.773,45.615-16.57,47.388-40.969C334.601,69.258,333.003,61.596,329.746,54.847z"/>
	</g>
</g>
<g>
	<g>
		<path d="M238.731,128.442c-8.184-0.595-18.161,3.969-24.595,8.035c-19.912,12.585-64.672,36.668-64.672,36.668l-59.883-14.889
			c4.606-8.62,4.49-21.452-1.22-33.629c-6.658-14.198-18.867-23.13-29.806-22.896l-2.899-6.183c3.632-4.665,4.595-11.15,1.917-16.86
			c-3.723-7.939-13.321-11.666-21.57-7.798c-8.116,3.806-11.605,13.452-7.798,21.57c2.588,5.519,8.122,9.128,14.191,9.317
			l2.895,6.174c-7.175,8.26-8.115,23.358-1.457,37.556c2.426,5.173,5.592,9.64,9.162,13.227c-2.111,2.22-3.702,4.992-4.493,8.179
			c-2.439,9.814,3.538,19.748,13.352,22.188l85.626,21.289c4.304,1.067,8.975,0.565,13.081-1.639l47.619-25.56l-5.858,80.645
			c37.756-25.735,61.487-59.788,75.221-85.317c8.124-15.1,14.81-30.993,19.539-45.839L238.731,128.442z M45.776,91.731
			c-0.914,0.429-1.883,0.646-2.88,0.646c-2.628-0.001-5.048-1.538-6.164-3.919c-0.771-1.644-0.856-3.491-0.239-5.199
			s1.863-3.073,3.509-3.845c0.914-0.429,1.883-0.646,2.88-0.646c2.629,0,5.049,1.537,6.165,3.916
			C50.639,86.08,49.172,90.138,45.776,91.731z"/>
	</g>
</g>
<g>
	<g>
		<path d="M483.667,103.542c-4.215-9.193-15.086-13.227-24.277-9.013l-81.36,37.308l-54.594,1.513
			c-4.905,17.313-12.879,37.296-23.093,56.419c-24.366,45.616-59.009,81.99-100.293,105.376l-0.52,7.166l-39.693,83.004
			l-67.242,92.418c-6.651,10.313-3.683,24.066,6.63,30.717c10.308,6.649,24.064,3.687,30.717-6.63
			c29.65-45.974,54.474-77.145,63.6-88.221c2.578-3.128,4.852-6.515,6.78-10.081l45.538-84.24c0.041,0.02,0.079,0.046,0.122,0.067
			l86.85,42.036l9.886,130.081c0.931,12.242,11.614,21.405,23.841,20.472c12.237-0.93,21.403-11.604,20.473-23.84l-10.856-142.827
			c-0.599-7.892-5.352-14.869-12.477-18.318l-50.675-24.527l9.619-132.413l60.133-1.666c2.463-0.068,4.886-0.633,7.126-1.66
			l84.753-38.865C483.846,123.603,487.881,112.734,483.667,103.542z"/>
	</g>
</g>
<g>
	<g>
		<path d="M331.403,42.155c0-0.001,0-0.002,0-0.002C328.378,17.816,307.661,0,283.754,0c-1.978,0-3.977,0.122-5.99,0.372
			c-28.679,3.565-47.839,31.517-40.647,59.609c0.429,1.677,2.091,2.721,3.788,2.383l26.476-5.262l9.911,37.025
			c0.37,1.381,1.748,2.238,3.15,1.96l6.821-1.355c1.33-0.265,2.261-1.469,2.18-2.822l-2.289-38.737l42.37-8.42
			C330.735,44.513,331.556,43.379,331.403,42.155z"/>
	</g>
</g>
</svg>