<?xml version="1.0" encoding="utf-8"?><!-- Uploaded to: SVG Repo, www.svgrepo.com, Generator: SVG Repo Mixer Tools -->
<svg width="800px" height="800px" viewBox="-0.5 0 25 25" fill="none" xmlns="http://www.w3.org/2000/svg">
<path d="M8.66992 5.5V11.03" stroke="#000000" stroke-width="1.5" stroke-linecap="round" stroke-linejoin="round"/>
<path d="M8.66992 11.03L11.4199 20.19C11.5048 20.4938 11.6864 20.7617 11.9372 20.953C12.1881 21.1443 12.4944 21.2486 12.8099 21.25V21.25C13.0016 21.2487 13.1912 21.2097 13.3679 21.1351C13.5445 21.0605 13.7047 20.9518 13.8394 20.8153C13.974 20.6788 14.0805 20.5171 14.1526 20.3395C14.2248 20.1618 14.2612 19.9718 14.2599 19.78V14.5" stroke="#000000" stroke-width="1.5" stroke-linecap="round" stroke-linejoin="round"/>
<path d="M2.00109 12.25C1.97626 12.7033 2.04411 13.157 2.2005 13.5832C2.35688 14.0094 2.59852 14.3993 2.91064 14.7289C3.22276 15.0586 3.59881 15.3212 4.01583 15.5007C4.43286 15.6801 4.88209 15.7727 5.33609 15.7727C5.79008 15.7727 6.23931 15.6801 6.65634 15.5007C7.07336 15.3212 7.44944 15.0586 7.76156 14.7289C8.07368 14.3993 8.31532 14.0094 8.47171 13.5832C8.62809 13.157 8.69594 12.7033 8.67111 12.25V6.62C8.69594 6.16668 8.62809 5.71308 8.47171 5.28687C8.31532 4.86065 8.07368 4.47074 7.76156 4.14105C7.44944 3.81136 7.07336 3.54878 6.65634 3.36932C6.23931 3.18986 5.79008 3.09729 5.33609 3.09729C4.88209 3.09729 4.43286 3.18986 4.01583 3.36932C3.59881 3.54878 3.22276 3.81136 2.91064 4.14105C2.59852 4.47074 2.35688 4.86065 2.2005 5.28687C2.04411 5.71308 1.97626 6.16668 2.00109 6.62V12.25Z" stroke="#000000" stroke-width="1.5" stroke-linecap="round" stroke-linejoin="round"/>
<path d="M8.66998 6.62C8.66735 6.18006 8.75137 5.74394 8.9173 5.33649C9.08322 4.92904 9.32777 4.55824 9.63699 4.2453C9.94621 3.93237 10.314 3.68341 10.7195 3.51263C11.1249 3.34186 11.56 3.25262 12 3.25H16.12C17.0806 3.25072 18.0152 3.56303 18.7833 4.14001C19.5514 4.717 20.1117 5.52755 20.38 6.45001L21.88 11.53C21.9994 11.8677 22.0365 12.229 21.9881 12.5839C21.9397 12.9387 21.8074 13.277 21.602 13.5704C21.3966 13.8638 21.1241 14.104 20.8072 14.2709C20.4903 14.4378 20.1381 14.5266 19.78 14.53H14.28" stroke="#000000" stroke-width="1.5" stroke-linecap="round" stroke-linejoin="round"/>
</svg>