<?xml version="1.0" encoding="UTF-8"?>
<svg version="1.1" xmlns="http://www.w3.org/2000/svg" width="512" height="512">
<path d="M0 0 C6.48906541 0.66574138 12.67081322 2.00421056 19 3.5625 C20.44826172 3.91344727 20.44826172 3.91344727 21.92578125 4.27148438 C24.28484017 4.84373134 26.64284292 5.41997829 29 6 C29 6.66 29 7.32 29 8 C30.09183594 8.11335693 31.18367187 8.22671387 32.30859375 8.34350586 C37.65055174 9.01425319 42.83055374 10.25553623 48.0625 11.50390625 C49.09439453 11.7466478 50.12628906 11.98938934 51.18945312 12.23948669 C54.46057097 13.00992087 57.73028925 13.78611823 61 14.5625 C63.2277744 15.08827289 65.45563811 15.6136675 67.68359375 16.13867188 C73.123437 17.42140564 78.56214517 18.7088643 84 20 C84 20.66 84 21.32 84 22 C84.80824219 22.12117188 85.61648438 22.24234375 86.44921875 22.3671875 C87.51785156 22.53476563 88.58648437 22.70234375 89.6875 22.875 C90.74324219 23.03742188 91.79898438 23.19984375 92.88671875 23.3671875 C97.65149364 24.33568628 100.24587613 24.8688142 103 29 C102.6682454 35.30333733 100.94799786 41.02123927 99 47 C98.34 47 97.68 47 97 47 C96.9175 47.94875 96.835 48.8975 96.75 49.875 C96.08784867 54.62690951 94.46898116 61.53101884 91 65 C86.60549251 64.56054925 82.31669828 63.94427775 78 63 C78 62.34 78 61.68 78 61 C75.03 60.67 72.06 60.34 69 60 C69.33 60.99 69.66 61.98 70 63 C71.99943044 63.66837291 73.99952021 64.33477443 76 65 C78.59765625 66.98828125 78.59765625 66.98828125 81.0625 69.3125 C81.92488281 70.12074219 82.78726563 70.92898437 83.67578125 71.76171875 C84.82626953 72.86966797 84.82626953 72.86966797 86 74 C86.9075 74.86625 87.815 75.7325 88.75 76.625 C97 85.33333333 97 85.33333333 97 88 C97.66 88 98.32 88 99 88 C100.5078125 90.1171875 100.5078125 90.1171875 102.125 92.875 C102.66382813 93.77992188 103.20265625 94.68484375 103.7578125 95.6171875 C105 98 105 98 105 100 C105.66 100 106.32 100 107 100 C108.17620825 102.41242713 109.3410956 104.82927691 110.5 107.25 C110.83386719 107.93191406 111.16773438 108.61382812 111.51171875 109.31640625 C113.19374744 112.8520992 114 115.01929286 114 119 C114.66 119 115.32 119 116 119 C118.95306149 128.2950607 121.76622908 137.16036927 122 147 C122.66 147 123.32 147 124 147 C127.31824359 166.34654521 127.31824359 186.65345479 124 206 C123.34 206 122.68 206 122 206 C122.0928125 207.39412109 122.0928125 207.39412109 122.1875 208.81640625 C122.1875 214.09257607 120.51965797 218.93015855 119 223.9375 C118.71382813 224.90751953 118.42765625 225.87753906 118.1328125 226.87695312 C117.43025583 229.25393652 116.71915599 231.62799658 116 234 C115.34 234 114.68 234 114 234 C113.89816406 234.84820312 113.79632813 235.69640625 113.69140625 236.5703125 C112.92681493 240.36303101 111.6084567 243.39087753 109.9375 246.875 C109.38964844 248.02742187 108.84179688 249.17984375 108.27734375 250.3671875 C107.85582031 251.23601562 107.43429687 252.10484375 107 253 C106.34 253 105.68 253 105 253 C104.62875 254.3303125 104.62875 254.3303125 104.25 255.6875 C102.95035375 259.13156256 101.51270773 261.33024803 99 264 C98.34 264 97.68 264 97 264 C96.938125 264.53625 96.87625 265.0725 96.8125 265.625 C95.59964736 269.17026157 93.55389074 271.2592392 91 274 C90.34 274 89.68 274 89 274 C88.6596875 274.804375 88.6596875 274.804375 88.3125 275.625 C85.48314473 280.74478572 82.12830221 284.25695463 77 287 C74.91660091 288.32726197 72.842417 289.66810829 70.76953125 291.01171875 C69 292 69 292 67 292 C66.67 292.99 66.34 293.98 66 295 C63.70334665 296.15132492 61.51903967 297.10194458 59.125 298 C58.10986328 298.39191528 58.10986328 298.39191528 57.07421875 298.79174805 C33.36297472 307.77030867 9.26271157 306.97407764 -14 297 C-16.89453125 295.46875 -16.89453125 295.46875 -19 294 C-19 293.34 -19 292.68 -19 292 C-19.82177734 291.85498047 -19.82177734 291.85498047 -20.66015625 291.70703125 C-23.61949311 290.81280759 -25.84427275 289.36716314 -28.4375 287.6875 C-29.36433594 287.09324219 -30.29117188 286.49898438 -31.24609375 285.88671875 C-35.46859737 282.99385456 -39.05866664 280.28231064 -42 276.0625 C-43.80245448 273.55574454 -45.45889693 271.55177509 -47.6875 269.375 C-50.22595213 266.76794106 -51.41001976 264.24909006 -53 261 C-53.63292969 260.39542969 -54.26585937 259.79085938 -54.91796875 259.16796875 C-57.27057163 256.71826031 -58.39498135 254.47816 -59.75 251.375 C-60.17796875 250.41335938 -60.6059375 249.45171875 -61.046875 248.4609375 C-62 246 -62 246 -62 244 C-62.66 244 -63.32 244 -64 244 C-65.00816056 241.41958904 -66.0067111 238.83613056 -67 236.25 C-67.28617187 235.52039063 -67.57234375 234.79078125 -67.8671875 234.0390625 C-68.27324219 232.97558594 -68.27324219 232.97558594 -68.6875 231.890625 C-68.93886719 231.24125977 -69.19023437 230.59189453 -69.44921875 229.92285156 C-70 228 -70 228 -70 224 C-70.66 224 -71.32 224 -72 224 C-79.63917799 191.95995249 -80.5201339 160.02603524 -72 128 C-71.34 128 -70.68 128 -70 128 C-69.62875 126.081875 -69.62875 126.081875 -69.25 124.125 C-68.08835439 118.830253 -66.13659734 113.96810741 -64 109 C-63.34 109 -62.68 109 -62 109 C-61.82984375 108.43152344 -61.6596875 107.86304688 -61.484375 107.27734375 C-59.40909559 100.6651503 -57.09317162 94.88095613 -52 90 C-50.63988391 88.01811655 -49.30208796 86.02048131 -48 84 C-49.44122613 84.59522337 -50.87785868 85.20157619 -52.3125 85.8125 C-53.11300781 86.14894531 -53.91351563 86.48539062 -54.73828125 86.83203125 C-57.00367845 87.85066805 -57.00367845 87.85066805 -58.41088867 89.44970703 C-60.0927828 91.09051633 -61.57900266 91.95502829 -63.6875 92.97265625 C-64.38617188 93.31490234 -65.08484375 93.65714844 -65.8046875 94.00976562 C-66.52914062 94.35716797 -67.25359375 94.70457031 -68 95.0625 C-69.43836883 95.75992973 -70.87590213 96.45908588 -72.3125 97.16015625 C-72.94800781 97.46574463 -73.58351563 97.77133301 -74.23828125 98.08618164 C-76.25821539 99.09321783 -76.25821539 99.09321783 -79 101 C-79.99 101 -80.98 101 -82 101 C-82 101.66 -82 102.32 -82 103 C-85.63 104.98 -89.26 106.96 -93 109 C-93.01030746 110.82687851 -93.02061493 112.65375702 -93.03123474 114.53599548 C-93.12877322 131.70946222 -93.23142862 148.88289155 -93.33933926 166.05629635 C-93.39469154 174.88639419 -93.44817677 183.71649607 -93.49731445 192.54663086 C-93.5401318 200.24014602 -93.58640349 207.93363118 -93.63687855 215.62710005 C-93.6634993 219.70327891 -93.68835278 223.77945174 -93.70907402 227.85566521 C-93.72860951 231.6879067 -93.75274381 235.520091 -93.78049088 239.35228157 C-93.78987774 240.76283864 -93.79754709 242.17340829 -93.80341911 243.58398438 C-93.81165252 245.50168817 -93.82651816 247.41936015 -93.84178162 249.33702087 C-93.84823417 250.41275329 -93.85468672 251.4884857 -93.8613348 252.59681606 C-94 255 -94 255 -95 256 C-96.76859193 256.09946453 -98.54111451 256.13080217 -100.3125 256.1328125 C-101.38757813 256.13410156 -102.46265625 256.13539063 -103.5703125 256.13671875 C-104.70210937 256.13285156 -105.83390625 256.12898438 -107 256.125 C-108.13179687 256.12886719 -109.26359375 256.13273437 -110.4296875 256.13671875 C-111.50476563 256.13542969 -112.57984375 256.13414062 -113.6875 256.1328125 C-115.17830078 256.13112061 -115.17830078 256.13112061 -116.69921875 256.12939453 C-119 256 -119 256 -120 255 C-120.1088746 253.0640635 -120.14689834 251.12412793 -120.15821838 249.18516541 C-120.1680072 247.92166763 -120.17779602 246.65816986 -120.18788147 245.35638428 C-120.19378643 243.94323768 -120.19959683 242.53009069 -120.20532227 241.11694336 C-120.21489537 239.63897931 -120.22490511 238.16101804 -120.23532104 236.68305969 C-120.26243772 232.65847154 -120.28341053 228.63387158 -120.30332303 224.6092422 C-120.32514103 220.40781277 -120.35255013 216.20642002 -120.37937927 212.00502014 C-120.42936295 204.04356403 -120.47428065 196.08208762 -120.51740164 188.1205917 C-120.56672562 179.05904807 -120.62166163 169.99754122 -120.67708123 160.93603313 C-120.79098836 142.29072288 -120.89780829 123.64537795 -121 105 C-122.32 104.34 -123.64 103.68 -125 103 C-125 102.34 -125 101.68 -125 101 C-125.82757813 100.7628125 -126.65515625 100.525625 -127.5078125 100.28125 C-131.61889996 98.77293156 -135.14265695 96.76399879 -138.875 94.5 C-139.56335938 94.09652344 -140.25171875 93.69304687 -140.9609375 93.27734375 C-142.67818898 92.24494852 -144.34458175 91.12888572 -146 90 C-146 89.34 -146 88.68 -146 88 C-146.66 88 -147.32 88 -148 88 C-148 87.01 -148 86.02 -148 85 C-146.61421867 83.81701594 -145.22009591 82.64238001 -143.78515625 81.51953125 C-139.59750789 77.95499031 -136.17832821 73.51499341 -132.8125 69.1875 C-131 67 -131 67 -128.9375 65.5 C-126.83451882 64.06304352 -126.83451882 64.06304352 -125.5625 61.5625 C-123.75359834 58.59590128 -121.72205142 57.13875469 -119 55 C-118.14941194 53.93016099 -117.31635956 52.84618092 -116.5 51.75 C-114 49 -114 49 -111.1875 48.625 C-110.465625 48.74875 -109.74375 48.8725 -109 49 C-109 48.34 -109 47.68 -109 47 C-78.49855908 35 -78.49855908 35 -75 35 C-75 34.34 -75 33.68 -75 33 C-71.06987792 31.4268862 -67.13716168 29.86050167 -63.2019043 28.30029297 C-61.86360574 27.76860679 -60.52603297 27.23508993 -59.18920898 26.69970703 C-57.26734371 25.93039 -55.34296284 25.16769846 -53.41796875 24.40625 C-52.26063232 23.94541016 -51.1032959 23.48457031 -49.91088867 23.00976562 C-47 22 -47 22 -44 22 C-44 21.34 -44 20.68 -44 20 C-39.64256259 18.2845513 -35.28260221 16.57574351 -30.92016602 14.87304688 C-29.43637963 14.29283691 -27.95329996 13.71081624 -26.47094727 13.12695312 C-24.34053675 12.28819759 -22.20767237 11.45597944 -20.07421875 10.625 C-19.41161545 10.36251465 -18.74901215 10.1000293 -18.06632996 9.82958984 C-15.21427766 8.72516638 -13.08890086 8 -10 8 C-10 7.34 -10 6.68 -10 6 C-9.16855469 5.72736328 -9.16855469 5.72736328 -8.3203125 5.44921875 C-7.23363281 5.07216797 -7.23363281 5.07216797 -6.125 4.6875 C-5.04605469 4.32205078 -5.04605469 4.32205078 -3.9453125 3.94921875 C-1.66005095 3.03664453 -1.66005095 3.03664453 0 0 Z " fill="#FFFFFF" transform="translate(252,94)"/>
</svg>
