<?xml version="1.0" encoding="utf-8"?>

<!DOCTYPE svg PUBLIC "-//W3C//DTD SVG 1.1//EN" "http://www.w3.org/Graphics/SVG/1.1/DTD/svg11.dtd">
<!-- Uploaded to: SVG Repo, www.svgrepo.com, Generator: SVG Repo Mixer Tools -->
<svg version="1.1" id="_x32_" xmlns="http://www.w3.org/2000/svg" xmlns:xlink="http://www.w3.org/1999/xlink" 
	 width="800px" height="800px" viewBox="0 0 512 512"  xml:space="preserve">
<style type="text/css">
<![CDATA[
	.st0{fill:#000000;}
]]>
</style>
<g>
	<path class="st0" d="M145.26,120.156l71.906-31.594v0.609h120.797V13.594C337.963,6.078,331.885,0,324.369,0H230.76
		c-5.938,0-10.969,3.813-12.828,9.094h-62.484c-5.203,0-10.094,2.484-13.156,6.688c0,0-6.266,8.125-11.391,15.531
		c-137.609,198.938-68.109,402-68.109,402H89.65C37.869,207.563,145.26,120.156,145.26,120.156z M179.775,34.516
		c6.875,0,12.453,5.578,12.453,12.453c0,6.906-5.578,12.469-12.453,12.469c-6.891,0-12.469-5.563-12.469-12.469
		C167.307,40.094,172.885,34.516,179.775,34.516z"/>
	<path class="st0" d="M197.354,363.313l0.563-78.281c0.031-3.625-1.391-7.109-3.938-9.688c-2.563-2.563-6.031-4-9.656-4h-50.703
		c-4.078,0-7.531,3.016-8.078,7.063c0,0-7.125,30.219-7.125,52.578c0,16.172,4.578,38.641,4.578,38.641
		c0.5,4.094,3.969,7.188,8.109,7.188h52.656C191.229,376.813,197.291,370.781,197.354,363.313z"/>
	<path class="st0" d="M421.51,271.344h-51.672c-3.609,0-7.078,1.438-9.641,4c-2.531,2.578-3.969,6.063-3.938,9.688l0.578,78.281
		c0.047,7.469,6.125,13.5,13.578,13.5h53.625c4.125,0,7.609-3.094,8.094-7.188c0,0,4.594-22.469,4.594-38.641
		c0-22.359-7.141-52.578-7.141-52.578C429.041,274.359,425.588,271.344,421.51,271.344z"/>
	<path class="st0" d="M233.572,254.078h87.031c3.75,0,7.344-1.547,9.906-4.266c2.578-2.75,3.891-6.406,3.672-10.156l-4.656-76.156
		c-0.438-7.172-6.391-12.75-13.563-12.75h-77.734c-7.188,0-13.125,5.578-13.578,12.75l-4.656,76.156
		c-0.219,3.75,1.094,7.406,3.672,10.156C226.229,252.531,229.807,254.078,233.572,254.078z"/>
	<path class="st0" d="M367.494,254.078h41.156c2.922,0,5.625-1.578,7.063-4.109c1.453-2.531,1.438-5.656-0.063-8.188
		c0,0-40.609-64.906-53.719-91.031h-8.156c-2.313,0-4.5,0.969-6.047,2.672s-2.297,3.984-2.063,6.297l8.297,82.156
		C354.682,248.797,360.525,254.078,367.494,254.078z"/>
	<path class="st0" d="M319.385,271.344h-84.594c-8.984,0-16.266,7.25-16.313,16.219l-0.328,72.875
		c-0.016,4.328,1.688,8.5,4.75,11.563c3.063,3.078,7.219,4.813,11.563,4.813h85.266c4.344,0,8.484-1.734,11.547-4.813
		c3.063-3.063,4.781-7.234,4.75-11.563l-0.328-72.875C335.666,278.594,328.385,271.344,319.385,271.344z"/>
	<path class="st0" d="M200.4,150.75h-7.203c-13.109,26.125-53.719,91.031-53.719,91.031c-1.5,2.531-1.516,5.656-0.063,8.188
		s4.141,4.109,7.078,4.109h40.188c6.984,0,12.828-5.281,13.531-12.203l8.297-82.156c0.234-2.313-0.516-4.594-2.063-6.297
		S202.713,150.75,200.4,150.75z"/>
	<path class="st0" d="M412.275,394.063h-43.578c-7.047,0-12.922,5.391-13.531,12.406c0,0-3.703,58.969-8.313,94.594
		c0.547-0.25,1.125-0.5,1.672-0.75c6.875-3.281,20.234-13.844,34.484-30.469c15.828-18.406,36.344-63.594,36.344-63.594
		c1.438-2.516,1.438-5.609-0.031-8.125C417.869,395.609,415.182,394.063,412.275,394.063z"/>
	<path class="st0" d="M321.338,394.063h-88.484c-3.734,0-7.313,1.531-9.875,4.25s-3.906,6.344-3.703,10.094l5.016,92.172
		c0.219,3.891,3.141,7.078,6.984,7.609c0,0,27.234,3.813,46.297,3.813c18.672,0,45.297-3.5,45.297-3.5
		c3.844-0.563,6.781-3.75,6.984-7.641l5.047-92.453c0.203-3.75-1.125-7.375-3.703-10.094
		C328.635,395.594,325.072,394.063,321.338,394.063z"/>
	<path class="st0" d="M185.479,394.063h-42.813c-2.891,0-5.563,1.531-7.016,4.031c-1.469,2.469-1.516,5.563-0.109,8.094
		c0,0,18.266,41.375,33.016,59.438c15.563,19.031,30.594,31.125,38.063,34.688c0.219,0.094,0.438,0.188,0.656,0.281
		c-4.563-35.469-8.266-94.125-8.266-94.125C198.4,399.453,192.51,394.063,185.479,394.063z"/>
	<path class="st0" d="M342.51,111.156c-0.391-4.188-3.906-7.375-8.109-7.375H220.729c-4.188,0-7.703,3.188-8.109,7.375
		c0,0,0.703,8.344-2.406,25h134.703C341.807,119.5,342.51,111.156,342.51,111.156z"/>
	<path class="st0" d="M462.275,81.469c-4.328-10.219-11.563-18.922-20.656-25.063c-9.094-6.156-20.125-9.766-31.906-9.75
		c-7.844,0-15.375,1.594-22.203,4.469c-10.25,4.344-18.938,11.563-25.094,20.656c-6.141,9.109-9.75,20.125-9.75,31.906
		c0,7.859,1.594,15.391,4.484,22.219c4.344,10.25,11.563,18.938,20.672,25.094c9.094,6.156,20.109,9.75,31.891,9.75
		c7.859,0,15.391-1.594,22.219-4.5c10.25-4.328,18.938-11.563,25.094-20.656c6.141-9.094,9.734-20.125,9.734-31.906
		C466.76,95.844,465.182,88.313,462.275,81.469z M446.385,119.188c-3.016,7.125-8.078,13.219-14.422,17.5
		c-6.359,4.297-13.969,6.797-22.25,6.797c-5.516,0-10.734-1.109-15.484-3.125c-7.125-3.016-13.219-8.078-17.516-14.422
		c-4.281-6.359-6.781-13.969-6.781-22.25c0-5.5,1.109-10.719,3.125-15.469c3.016-7.125,8.063-13.25,14.422-17.531
		s13.969-6.781,22.234-6.781c5.516,0,10.734,1.125,15.484,3.125c7.141,3,13.234,8.063,17.516,14.422
		c4.297,6.359,6.797,13.984,6.797,22.234C449.51,109.219,448.4,114.438,446.385,119.188z"/>
</g>
</svg>