<?xml version="1.0" encoding="utf-8"?><!-- Uploaded to: SVG Repo, www.svgrepo.com, Generator: SVG Repo Mixer Tools -->
<svg width="800px" height="800px" viewBox="0 0 24 24" fill="none" xmlns="http://www.w3.org/2000/svg">
<path d="M12 3V9M12 3C9.01852 3 7.14819 5.22231 6.38902 6.35404C6.28972 6.50206 6.24007 6.57608 6.16864 6.73881C6.11892 6.85211 6.05316 7.06819 6.03134 7.18997C6 7.36491 6 7.49508 6 7.75542V15C6 18.3137 8.68629 21 12 21C15.3137 21 18 18.3137 18 15V7.75542C18 7.49508 18 7.36491 17.9687 7.18997C17.9468 7.06819 17.8811 6.85211 17.8314 6.73881C17.7599 6.57608 17.7103 6.50206 17.611 6.35404C16.8518 5.22231 14.9815 3 12 3Z" stroke="#000000" stroke-width="2" stroke-linecap="round" stroke-linejoin="round"/>
</svg>