<?xml version="1.0" encoding="utf-8"?><!-- Uploaded to: SVG Repo, www.svgrepo.com, Generator: SVG Repo Mixer Tools -->
<svg width="800px" height="800px" viewBox="0 0 25 25" fill="none" xmlns="http://www.w3.org/2000/svg">
<path d="M8.9707 19.42V13.89" stroke="#000000" stroke-width="1.5" stroke-linecap="round" stroke-linejoin="round"/>
<path d="M2.28234 12.67C2.25751 12.2167 2.32536 11.7631 2.48175 11.3369C2.63813 10.9106 2.87975 10.5208 3.19187 10.1911C3.504 9.86141 3.88006 9.59877 4.29708 9.41931C4.71411 9.23985 5.16335 9.14734 5.61735 9.14734C6.07135 9.14734 6.52058 9.23985 6.9376 9.41931C7.35463 9.59877 7.73069 9.86141 8.04281 10.1911C8.35493 10.5208 8.59657 10.9106 8.75296 11.3369C8.90934 11.7631 8.97717 12.2167 8.95234 12.67V18.3C8.97717 18.7533 8.90934 19.207 8.75296 19.6332C8.59657 20.0594 8.35493 20.4492 8.04281 20.7789C7.73069 21.1086 7.35463 21.3712 6.9376 21.5507C6.52058 21.7301 6.07135 21.8227 5.61735 21.8227C5.16335 21.8227 4.71411 21.7301 4.29708 21.5507C3.88006 21.3712 3.504 21.1086 3.19187 20.7789C2.87975 20.4492 2.63813 20.0594 2.48175 19.6332C2.32536 19.207 2.25751 18.7533 2.28234 18.3V12.67Z" stroke="#000000" stroke-width="1.5" stroke-linecap="round" stroke-linejoin="round"/>
<path d="M8.97076 18.3C8.96813 18.7399 9.05217 19.176 9.21809 19.5835C9.38402 19.9909 9.62857 20.3617 9.93779 20.6747C10.247 20.9876 10.6148 21.2366 11.0203 21.4073C11.4257 21.5781 11.8608 21.6674 12.3008 21.67H16.4208C17.3814 21.6693 18.316 21.357 19.0841 20.78C19.8522 20.203 20.4125 19.3924 20.6808 18.47L22.1808 13.39C22.3002 13.0523 22.3372 12.691 22.2889 12.3361C22.2405 11.9812 22.1081 11.643 21.9028 11.3496C21.6974 11.0562 21.4249 10.816 21.108 10.6491C20.7911 10.4822 20.4389 10.3934 20.0808 10.39H14.5608V5.10999C14.5621 4.91825 14.5256 4.72818 14.4535 4.55054C14.3813 4.3729 14.2749 4.21121 14.1402 4.07471C14.0056 3.9382 13.8454 3.82953 13.6687 3.75494C13.4921 3.68036 13.3025 3.64132 13.1108 3.64001V3.64001C12.7953 3.64144 12.4889 3.74572 12.2381 3.93701C11.9872 4.1283 11.8056 4.39617 11.7208 4.70001L8.97076 13.86" stroke="#000000" stroke-width="1.5" stroke-linecap="round" stroke-linejoin="round"/>
</svg>