<?xml version="1.0" encoding="UTF-8"?>
<svg version="1.1" xmlns="http://www.w3.org/2000/svg" width="512" height="512">
<path d="M0 0 C0.80934601 -0.00320648 1.61869202 -0.00641296 2.45256367 -0.0097166 C5.16374579 -0.01801594 7.87470696 -0.01209253 10.58589268 -0.00622082 C12.54963898 -0.00924152 14.5133841 -0.0131306 16.47712713 -0.01781338 C21.87303615 -0.02811243 27.26887887 -0.0259067 32.66479337 -0.02163279 C38.48424428 -0.01916905 44.30367908 -0.02817532 50.12312412 -0.03567028 C61.52358616 -0.04842882 72.92402465 -0.05020955 84.32449263 -0.04787002 C93.58913478 -0.04608809 102.85376977 -0.0478338 112.11841106 -0.05209446 C114.09513167 -0.05298724 114.09513167 -0.05298724 116.11178603 -0.05389806 C118.11766681 -0.05480532 120.12354758 -0.05571398 122.12942836 -0.05663041 C140.77816771 -0.06505959 159.42690446 -0.06939585 178.07564545 -0.06522369 C178.77862307 -0.06506732 179.4816007 -0.06491094 180.20588067 -0.06474983 C183.76883865 -0.06394405 187.33179662 -0.06309827 190.89475458 -0.06223653 C191.6023679 -0.06206544 192.30998123 -0.06189435 193.03903738 -0.06171808 C194.47000284 -0.06137142 195.9009683 -0.06102289 197.33193376 -0.06067249 C219.60097434 -0.05531452 241.86997533 -0.06324801 264.13900852 -0.08170605 C289.15915784 -0.1024201 314.17928264 -0.11314996 339.19944102 -0.10913056 C352.44697444 -0.10716719 365.69447333 -0.10972818 378.94200039 -0.1238451 C390.21886785 -0.13574029 401.49567703 -0.13718468 412.77254527 -0.12505493 C418.52740513 -0.11915335 424.2821583 -0.11810219 430.03701115 -0.13005733 C435.30413942 -0.14087227 440.57107134 -0.13786518 445.83819026 -0.12379565 C447.74457094 -0.12113661 449.65096679 -0.12355292 451.55733263 -0.13153151 C454.14794092 -0.14162207 456.73786461 -0.13322892 459.32844543 -0.12025452 C460.06909682 -0.12756386 460.80974821 -0.13487321 461.57284358 -0.14240405 C468.17647171 -0.07382067 474.47197659 1.59115318 479.53964329 6.06697559 C480.0823386 6.52717091 480.62503391 6.98736622 481.18417454 7.46150684 C486.05574088 13.12239026 486.3075731 18.66002604 486.14120579 25.83650684 C485.37790393 32.13734768 482.36103165 35.94406197 477.78964329 40.12947559 C472.25372443 43.97072541 467.14748965 44.54770895 460.54609966 44.50895119 C459.32874629 44.5137609 459.32874629 44.5137609 458.08679992 44.51866779 C455.36203507 44.52698202 452.63748921 44.5210385 449.91272068 44.515172 C447.94158784 44.51819204 445.97045617 44.52208077 443.99932659 44.52676457 C438.57835519 44.53707242 433.15744972 44.53485566 427.73647285 44.53058398 C421.8917826 44.52812181 416.04710844 44.53712458 410.20242405 44.54462147 C398.75035589 44.55738468 387.29831115 44.55916014 375.84623708 44.5568212 C366.53961806 44.5550397 357.23300719 44.55678409 347.92638874 44.56104565 C346.5895201 44.56164805 345.25265147 44.56224924 343.91578283 44.56284925 C341.90127035 44.5637565 339.88675788 44.56466517 337.87224541 44.5655816 C319.1409865 44.57401185 300.40973019 44.57834633 281.67846966 44.57417488 C280.61915562 44.57394032 280.61915562 44.57394032 279.53844129 44.57370101 C275.95905939 44.57289523 272.3796775 44.57204946 268.80029561 44.57118771 C268.08941406 44.57101662 267.37853252 44.57084554 266.64610911 44.57066926 C265.20853381 44.57032261 263.7709585 44.56997408 262.33338319 44.56962368 C239.96380717 44.56426626 217.59427056 44.57219719 195.22470188 44.59065723 C170.09432339 44.61137128 144.96396931 44.62210109 119.83358181 44.61808175 C117.154231 44.6176864 114.47488018 44.61732485 111.79552937 44.61698437 C110.47718028 44.61681653 109.1588312 44.61664869 107.80053214 44.61647576 C98.50475993 44.61603761 89.20900975 44.62293516 79.91324329 44.63279629 C68.58511475 44.64469156 57.25704423 44.64613582 45.92891492 44.63400612 C40.14773371 44.62810442 34.36665873 44.62705367 28.5854845 44.63900852 C23.29426114 44.64982317 18.00323324 44.64681669 12.71201919 44.63274684 C10.79686036 44.6300877 8.88168643 44.63250439 6.96654238 44.6404827 C4.36408167 44.6505726 1.76230254 44.64218064 -0.84013081 44.6292057 C-1.58427673 44.63651505 -2.32842266 44.6438244 -3.09511846 44.65135524 C-9.16752284 44.58856972 -14.76182826 43.38491262 -19.51504421 39.35213184 C-20.05387234 38.68053028 -20.59270046 38.00892872 -21.14785671 37.31697559 C-21.97930202 36.31344044 -21.97930202 36.31344044 -22.82754421 35.28963184 C-27.28345558 29.01522692 -27.09149905 22.79104886 -26.27285671 15.25447559 C-24.2173873 9.56444224 -20.19610142 5.602282 -15.27285671 2.25447559 C-10.13199906 0.44786891 -5.40041433 -0.03195569 0 0 Z " fill="#000000" transform="translate(26.27285671234131,396.7455244064331)"/>
<path d="M0 0 C0.81126932 -0.00350607 1.62253864 -0.00701215 2.45839188 -0.01062447 C5.18214387 -0.01994277 7.90568226 -0.01501403 10.62944317 -0.01015663 C12.59986361 -0.01389267 14.57028258 -0.018494 16.54069918 -0.02388728 C21.9597368 -0.03613836 27.37871277 -0.03585432 32.79776108 -0.03349853 C38.64042785 -0.03309089 44.48307471 -0.04412435 50.32573223 -0.05361366 C61.77412273 -0.07023602 73.22249263 -0.07572376 84.67089418 -0.07683842 C93.97512101 -0.07778827 103.27934104 -0.08189543 112.58356571 -0.08823967 C115.26171054 -0.09003475 117.93985537 -0.09181438 120.61800021 -0.09358943 C121.61669011 -0.09425257 121.61669011 -0.09425257 122.63555556 -0.09492911 C141.36324012 -0.10723759 160.09092236 -0.11513023 178.81861115 -0.11424255 C179.52469529 -0.1142114 180.23077943 -0.11418024 180.95826006 -0.11414814 C184.536994 -0.11398192 188.11572793 -0.11378384 191.69446186 -0.11357872 C192.40521221 -0.11353883 193.11596255 -0.11349894 193.84825078 -0.11345784 C195.28556116 -0.11337697 196.72287153 -0.11329337 198.1601819 -0.11320706 C220.52306448 -0.11198151 242.88588641 -0.12699535 265.24875164 -0.15435219 C290.37291528 -0.18507429 315.49703907 -0.20228462 340.62122267 -0.20042574 C353.92414545 -0.19968459 367.22701117 -0.20527808 380.52991962 -0.22678185 C391.85546902 -0.24497173 403.18091902 -0.24935896 414.50647668 -0.235763 C420.2857884 -0.22922242 426.0649093 -0.22915564 431.844203 -0.2464695 C437.13491076 -0.26215675 442.42527571 -0.25938092 447.71597489 -0.24190123 C449.62980724 -0.23882177 451.5436649 -0.24249919 453.45746741 -0.25362138 C474.00849788 -0.36514369 474.00849788 -0.36514369 480.67452842 6.03658736 C486.44290865 12.29986257 487.33282098 17.28399175 487.20065594 25.76898766 C486.51053173 32.12239913 483.4822252 35.92251296 478.88424969 40.13226891 C473.3499007 43.97242943 468.24313011 44.55077983 461.64349937 44.51453781 C460.4265954 44.51979692 460.4265954 44.51979692 459.1851075 44.52516228 C456.46135551 44.53448058 453.73781712 44.52955184 451.01405621 44.52469444 C449.04363576 44.52843048 447.0732168 44.53303181 445.10280019 44.53842509 C439.68376258 44.55067617 434.2647866 44.55039214 428.84573829 44.54803634 C423.00307153 44.54762871 417.16042467 44.55866216 411.31776714 44.56815147 C399.86937665 44.58477383 388.42100674 44.59026157 376.97260519 44.59137623 C367.66837836 44.59232608 358.36415834 44.59643324 349.05993366 44.60277748 C346.38178884 44.60457257 343.703644 44.60635219 341.02549917 44.60812724 C340.02680927 44.60879038 340.02680927 44.60879038 339.00794381 44.60946692 C320.28025925 44.62177541 301.55257701 44.62966804 282.82488823 44.62878036 C282.11880409 44.62874921 281.41271994 44.62871805 280.68523931 44.62868595 C277.10650538 44.62851973 273.52777145 44.62832165 269.94903751 44.62811653 C269.23828717 44.62807664 268.52753682 44.62803675 267.79524859 44.62799565 C266.35793822 44.62791478 264.92062784 44.62783118 263.48331747 44.62774487 C241.12043489 44.62651932 218.75761296 44.64153316 196.39474773 44.66889 C171.2705841 44.6996121 146.14646031 44.71682243 121.0222767 44.71496356 C107.71935392 44.7142224 94.4164882 44.71981589 81.11357975 44.74131966 C69.78803035 44.75950954 58.46258036 44.76389677 47.1370227 44.75030081 C41.35771097 44.74376023 35.57859008 44.74369345 29.79929638 44.76100731 C24.50858861 44.77669456 19.21822367 44.77391873 13.92752448 44.75643905 C12.01369213 44.75335958 10.09983447 44.757037 8.18603196 44.7681592 C-12.3649985 44.8796815 -12.3649985 44.8796815 -19.03102905 38.47795045 C-24.79940928 32.21467524 -25.68932161 27.23054606 -25.55715656 18.74555016 C-24.86703236 12.39213868 -21.83872582 8.59202485 -17.24075031 4.38226891 C-11.70640132 0.54210838 -6.59963073 -0.03624202 0 0 Z " fill="#000000" transform="translate(25.178250312805176,69.74273109436035)"/>
<path d="M0 0 C1.22229132 -0.00352835 1.22229132 -0.00352835 2.46927539 -0.00712797 C5.22324508 -0.01383042 7.97716773 -0.01335937 10.73114491 -0.01294994 C12.71618704 -0.01624779 14.7012285 -0.01997319 16.6862691 -0.02409142 C22.15960573 -0.0341285 27.63293139 -0.03783096 33.10627592 -0.04048073 C39.00214155 -0.04437871 44.89799845 -0.05395736 50.79385853 -0.0626936 C64.36764227 -0.08153692 77.94142756 -0.09171603 91.51522096 -0.10015428 C98.22161709 -0.10435972 104.92801233 -0.10958184 111.63440771 -0.11483881 C134.58710827 -0.13272953 157.53980908 -0.147726 180.49251556 -0.155159 C181.93369815 -0.15563376 183.37488074 -0.15610964 184.81606333 -0.15658666 C185.53076652 -0.15682303 186.2454697 -0.15705941 186.98183055 -0.15730295 C190.60292464 -0.15850416 194.22401872 -0.15971961 197.8451128 -0.16094494 C198.56373225 -0.16118509 199.28235169 -0.16142524 200.02274749 -0.16167267 C223.32467662 -0.16956645 246.62655487 -0.19299965 269.92846177 -0.22550088 C294.55932603 -0.25979306 319.19016051 -0.27950956 343.82104903 -0.28280324 C346.5245996 -0.28322078 349.22815016 -0.28370035 351.93170071 -0.28422642 C352.59740035 -0.28434961 353.2631 -0.2844728 353.94897236 -0.28459973 C364.00168933 -0.28678802 374.05435309 -0.30009121 384.1070509 -0.31926441 C395.54139162 -0.34093438 406.97563939 -0.34904007 418.40999832 -0.33929763 C424.24587582 -0.33474225 430.08156138 -0.33671108 435.91741276 -0.35605907 C441.25875894 -0.37361497 446.59977209 -0.37275465 451.94112144 -0.35716178 C453.87454353 -0.35477418 455.80798822 -0.35916859 457.74137565 -0.37099043 C460.36867437 -0.38606154 462.99478578 -0.3764703 465.62205505 -0.36076355 C466.3734759 -0.37098576 467.12489676 -0.38120796 467.89908794 -0.39173993 C474.250142 -0.30881855 479.62057268 1.65768396 484.18422413 6.16937733 C484.63926319 6.83840076 485.09430225 7.5074242 485.56313038 8.19672108 C486.03621632 8.86832264 486.50930225 9.5399242 486.99672413 10.23187733 C490.44381865 16.04064907 490.13178416 24.16087493 488.51234913 30.55609608 C486.1514383 35.922748 482.09940551 39.18263789 477.12563038 42.13422108 C473.45332984 43.35832126 470.07482864 43.2758757 466.25126076 43.26844215 C465.43639988 43.27079438 464.621539 43.27314661 463.78198537 43.27557012 C461.02801568 43.28227258 458.27409303 43.28180153 455.52011585 43.2813921 C453.53507372 43.28468994 451.55003225 43.28841534 449.56499165 43.29253358 C444.09165503 43.30257065 438.61832937 43.30627311 433.14498484 43.30892289 C427.24911921 43.31282086 421.3532623 43.32239952 415.45740223 43.33113575 C401.88361848 43.34997908 388.3098332 43.36015818 374.7360398 43.36859643 C368.02964366 43.37280187 361.32324843 43.378024 354.61685305 43.38328096 C331.66415249 43.40117169 308.71145168 43.41616815 285.75874519 43.42360115 C284.3175626 43.42407591 282.87638001 43.4245518 281.43519742 43.42502881 C280.72049424 43.42526519 280.00579106 43.42550156 279.26943021 43.4257451 C275.64833612 43.42694631 272.02724204 43.42816176 268.40614796 43.42938709 C267.68752851 43.42962724 266.96890906 43.42986739 266.22851327 43.43011482 C242.92658414 43.43800861 219.62470589 43.4614418 196.32279898 43.49394304 C171.69193473 43.52823522 147.06110025 43.54795172 122.43021172 43.55124539 C119.72666115 43.55166294 117.0231106 43.5521425 114.31956005 43.55266857 C113.32101058 43.55285336 113.32101058 43.55285336 112.30228839 43.55304188 C102.24957143 43.55523017 92.19690766 43.56853336 82.14420986 43.58770657 C70.70986914 43.60937653 59.27562137 43.61748222 47.84126244 43.60773978 C42.00538494 43.60318441 36.16969937 43.60515324 30.333848 43.62450123 C24.99250182 43.64205713 19.65148867 43.6411968 14.31013932 43.62560394 C12.37671723 43.62321634 10.44327253 43.62761074 8.50988511 43.63943259 C5.88258638 43.6545037 3.25647498 43.64491245 0.6292057 43.6292057 C-0.49792557 43.64453901 -0.49792557 43.64453901 -1.64782718 43.66018209 C-7.99888125 43.5772607 -13.36931192 41.6107582 -17.93296337 37.09906483 C-18.61552197 36.09552967 -18.61552197 36.09552967 -19.31186962 35.07172108 C-20.02149853 34.06431873 -20.02149853 34.06431873 -20.74546337 33.03656483 C-24.19255789 27.22779309 -23.8805234 19.10756723 -22.26108837 12.71234608 C-19.90017755 7.34569416 -15.84814475 4.08580426 -10.87436962 1.13422108 C-7.20206908 -0.0898791 -3.82356788 -0.00743354 0 0 Z " fill="#000000" transform="translate(22.874369621276855,233.86577892303467)"/>
</svg>
