<?xml version="1.0" encoding="UTF-8"?>
<svg version="1.1" xmlns="http://www.w3.org/2000/svg" width="360" height="360">
<path d="M0 0 C1.98 0 3.96 0 6 0 C6 2.64 6 5.28 6 8 C5.34 8.33 4.68 8.66 4 9 C3.52998967 12.27555608 3.52998967 12.27555608 3.375 16.0625 C3.30023438 17.35285156 3.22546875 18.64320312 3.1484375 19.97265625 C3.07496094 21.47119141 3.07496094 21.47119141 3 23 C2.34 23 1.68 23 1 23 C0.93941406 24.28777344 0.87882812 25.57554688 0.81640625 26.90234375 C0.73201753 28.58074159 0.6473687 30.25912636 0.5625 31.9375 C0.52318359 32.78763672 0.48386719 33.63777344 0.44335938 34.51367188 C0.40146484 35.32255859 0.35957031 36.13144531 0.31640625 36.96484375 C0.27974854 37.7137085 0.24309082 38.46257324 0.20532227 39.23413086 C0 41 0 41 -1 42 C-1.15686249 43.55948542 -1.25076639 45.12542668 -1.31640625 46.69140625 C-1.35830078 47.63564453 -1.40019531 48.57988281 -1.44335938 49.55273438 C-1.48267578 50.54595703 -1.52199219 51.53917969 -1.5625 52.5625 C-1.62727539 54.05813477 -1.62727539 54.05813477 -1.69335938 55.58398438 C-1.79980298 58.0558415 -1.90181928 60.5278031 -2 63 C-3.485 63.495 -3.485 63.495 -5 64 C-5 82.15 -5 100.3 -5 119 C-4.34 119 -3.68 119 -3 119 C-3 116.36 -3 113.72 -3 111 C-2.34 111.33 -1.68 111.66 -1 112 C-1.33 117.94 -1.66 123.88 -2 130 C-1.34 130 -0.68 130 0 130 C0.061875 130.7425 0.12375 131.485 0.1875 132.25 C1.24188 135.81867077 3.07395942 136.82422624 6 139 C6 139.66 6 140.32 6 141 C6.99 141 7.98 141 9 141 C9 141.99 9 142.98 9 144 C9.94875 143.814375 10.8975 143.62875 11.875 143.4375 C15 143 15 143 17 144 C17.33 143.01 17.66 142.02 18 141 C19.66072849 140.31867549 21.327767 139.65257873 23 139 C23.66 138.01 24.32 137.02 25 136 C25.99 136 26.98 136 28 136 C28 134.35 28 132.7 28 131 C28.66 130.67 29.32 130.34 30 130 C30.46751788 127.64400765 30.46751788 127.64400765 30.625 124.9375 C30.69976562 124.01839844 30.77453125 123.09929687 30.8515625 122.15234375 C30.92503906 121.08693359 30.92503906 121.08693359 31 120 C31.66 120 32.32 120 33 120 C33 113.07 33 106.14 33 99 C32.34 99 31.68 99 31 99 C30.505 90.09 30.505 90.09 30 81 C29.34 80.67 28.68 80.34 28 80 C27.5859375 77.05859375 27.5859375 77.05859375 27.375 73.4375 C27.26285156 71.64119141 27.26285156 71.64119141 27.1484375 69.80859375 C27.09945312 68.88175781 27.05046875 67.95492187 27 67 C26.34 67 25.68 67 25 67 C25 63.37 25 59.74 25 56 C26.98 56 28.96 56 31 56 C31.33 56.99 31.66 57.98 32 59 C32.66 59.33 33.32 59.66 34 60 C34.33 60.99 34.66 61.98 35 63 C35.66 63.33 36.32 63.66 37 64 C37 65.32 37 66.64 37 68 C37.99 68 38.98 68 40 68 C40 69.98 40 71.96 40 74 C40.99 73.67 41.98 73.34 43 73 C43 74.98 43 76.96 43 79 C43.66 79 44.32 79 45 79 C45.33 80.65 45.66 82.3 46 84 C46.66 84 47.32 84 48 84 C48.33 85.98 48.66 87.96 49 90 C49.66 89.34 50.32 88.68 51 88 C53.625 88.375 53.625 88.375 56 89 C56.12578616 96.42138365 56.12578616 96.42138365 55.375 99.875 C55.189375 100.926875 55.189375 100.926875 55 102 C55.66 102.66 56.32 103.32 57 104 C57.26991906 106.68839385 57.08737357 109.29141936 57 112 C57.66 112 58.32 112 59 112 C60.26582219 115.86723631 60.1118765 119.73151262 60.0625 123.75 C60.05798828 124.44738281 60.05347656 125.14476563 60.04882812 125.86328125 C60.0371002 127.57555803 60.01916653 129.28779033 60 131 C60.66 131 61.32 131 62 131 C62.66 131.99 63.32 132.98 64 134 C64.66 134 65.32 134 66 134 C66 141.26 66 148.52 66 156 C64.68 156 63.36 156 62 156 C62.25561323 158.3431213 62.59270772 160.67843403 63 163 C63.66 163.33 64.32 163.66 65 164 C65 164.66 65 165.32 65 166 C67.64 165.67 70.28 165.34 73 165 C73 164.34 73 163.68 73 163 C73.66 162.67 74.32 162.34 75 162 C75.33 155.07 75.66 148.14 76 141 C82 141 82 141 83.83984375 142.12109375 C85.47562932 144.77029529 85.44604064 146.97069183 85.5625 150.0625 C85.52049942 154.55511895 85.52049942 154.55511895 88 158 C88.17546482 161.01308951 88.23127445 163.93310454 88.1953125 166.9453125 C88.1924826 167.8303244 88.18965271 168.7153363 88.18673706 169.62716675 C88.1755224 172.45991412 88.1504157 175.29234784 88.125 178.125 C88.11497185 180.04296419 88.10584572 181.96093333 88.09765625 183.87890625 C88.07557889 188.58605876 88.04104045 193.29297616 88 198 C87.01 198.33 86.02 198.66 85 199 C85 202.96 85 206.92 85 211 C84.34 211 83.68 211 83 211 C82.814375 212.9490625 82.814375 212.9490625 82.625 214.9375 C82.4140625 217.15234375 82.4140625 217.15234375 82 219 C81.34 219.33 80.68 219.66 80 220 C79.59270772 222.32156597 79.25561323 224.6568787 79 227 C78.34 227 77.68 227 77 227 C77 229.64 77 232.28 77 235 C76.34 234.67 75.68 234.34 75 234 C74.34 235.65 73.68 237.3 73 239 C72.34 239 71.68 239 71 239 C70.67 240.65 70.34 242.3 70 244 C69.34 244 68.68 244 68 244 C68 245.32 68 246.64 68 248 C67.01 248 66.02 248 65 248 C65.66 248.99 66.32 249.98 67 251 C67.125 254.1875 67.125 254.1875 67 257 C65.34385343 257.38218767 63.67542976 257.71395102 62 258 C61.67 257.67 61.34 257.34 61 257 C60.34 258.32 59.68 259.64 59 261 C58.34 261 57.68 261 57 261 C57 262.65 57 264.3 57 266 C56.01 266.33 55.02 266.66 54 267 C54 267.99 54 268.98 54 270 C53.01 270 52.02 270 51 270 C51.103125 270.7425 51.20625 271.485 51.3125 272.25 C51 275 51 275 48.6875 277.3125 C46 279 46 279 43 279 C43 279.99 43 280.98 43 282 C42.01 282 41.02 282 40 282 C40 282.66 40 283.32 40 284 C35.9090934 287.31168629 33.26371362 288.50130606 28 288 C28 288.66 28 289.32 28 290 C24.37 290 20.74 290 17 290 C16.67 290.99 16.34 291.98 16 293 C12.04 293 8.08 293 4 293 C3.505 291.515 3.505 291.515 3 290 C-0.63 290 -4.26 290 -8 290 C-8 289.34 -8 288.68 -8 288 C-8.86625 288.0825 -9.7325 288.165 -10.625 288.25 C-14.79290588 287.94126623 -16.78527774 286.60239421 -20 284 C-20 283.34 -20 282.68 -20 282 C-20.99 282 -21.98 282 -23 282 C-23 281.34 -23 280.68 -23 280 C-24.65 279.67 -26.3 279.34 -28 279 C-28 278.01 -28 277.02 -28 276 C-28.99 276 -29.98 276 -31 276 C-31.33 274.35 -31.66 272.7 -32 271 C-32.66 271 -33.32 271 -34 271 C-34 269.68 -34 268.36 -34 267 C-34.99 266.67 -35.98 266.34 -37 266 C-37 264.68 -37 263.36 -37 262 C-37.66 262 -38.32 262 -39 262 C-42.03436527 259.69388239 -42.33082151 257.63268321 -43 254 C-43.66 253.67 -44.32 253.34 -45 253 C-45.33 252.01 -45.66 251.02 -46 250 C-46.66 249.67 -47.32 249.34 -48 249 C-48.33333333 247.33333333 -48.66666667 245.66666667 -49 244 C-49.66 243.67 -50.32 243.34 -51 243 C-51 241.35 -51 239.7 -51 238 C-51.99 237.67 -52.98 237.34 -54 237 C-54 235.02 -54 233.04 -54 231 C-54.66 231 -55.32 231 -56 231 C-55.67 232.32 -55.34 233.64 -55 235 C-55.99 235 -56.98 235 -58 235 C-58 231.7 -58 228.4 -58 225 C-58.33 225 -58.66 225 -59 225 C-59.1953125 222.94921875 -59.390625 220.8984375 -59.5859375 218.84765625 C-59.72257812 218.23792969 -59.85921875 217.62820312 -60 217 C-60.66 216.67 -61.32 216.34 -62 216 C-62 212.37 -62 208.74 -62 205 C-62.99 205 -63.98 205 -65 205 C-65 200.38 -65 195.76 -65 191 C-65.66 191 -66.32 191 -67 191 C-67 194.3 -67 197.6 -67 201 C-67.66 201 -68.32 201 -69 201 C-68.67 187.8 -68.34 174.6 -68 161 C-67.01 161.33 -66.02 161.66 -65 162 C-65 159.03 -65 156.06 -65 153 C-64.34 152.67 -63.68 152.34 -63 152 C-62.59270772 149.67843403 -62.25561323 147.3431213 -62 145 C-60.34385343 144.61781233 -58.67542976 144.28604898 -57 144 C-55.34920558 145.65079442 -55.77450553 147.63736179 -55.68359375 149.91015625 C-55.62075195 151.39418945 -55.62075195 151.39418945 -55.55664062 152.90820312 C-55.51732422 153.94912109 -55.47800781 154.99003906 -55.4375 156.0625 C-55.39431641 157.10728516 -55.35113281 158.15207031 -55.30664062 159.22851562 C-55.20018775 161.81886884 -55.0981724 164.40932186 -55 167 C-54.34 167 -53.68 167 -53 167 C-53 168.65 -53 170.3 -53 172 C-52.34 172 -51.68 172 -51 172 C-51 171.34 -51 170.68 -51 170 C-50.34 169.67 -49.68 169.34 -49 169 C-48.835 168.34 -48.67 167.68 -48.5 167 C-48.335 166.34 -48.17 165.68 -48 165 C-47.34 164.67 -46.68 164.34 -46 164 C-45.835 163.175 -45.67 162.35 -45.5 161.5 C-45.335 160.675 -45.17 159.85 -45 159 C-44.34 158.67 -43.68 158.34 -43 158 C-42.53045739 154.95418731 -42.53045739 154.95418731 -42.375 151.4375 C-42.30023438 150.23996094 -42.22546875 149.04242188 -42.1484375 147.80859375 C-42.07496094 146.41833984 -42.07496094 146.41833984 -42 145 C-41.34 145 -40.68 145 -40 145 C-40.01160156 143.99839844 -40.02320313 142.99679688 -40.03515625 141.96484375 C-40.04454398 140.62239772 -40.05364312 139.27994964 -40.0625 137.9375 C-40.07410156 136.62652344 -40.08570313 135.31554687 -40.09765625 133.96484375 C-40.00452335 130.1836481 -39.61448726 126.72079293 -39 123 C-38.34 123 -37.68 123 -37 123 C-37 114.75 -37 106.5 -37 98 C-36.34 97.67 -35.68 97.34 -35 97 C-34.68758629 94.45058627 -34.48696579 91.99638487 -34.375 89.4375 C-34.31699219 88.37112305 -34.31699219 88.37112305 -34.2578125 87.28320312 C-34.16328217 85.52257575 -34.08054183 83.76132272 -34 82 C-33.01 82.33 -32.02 82.66 -31 83 C-31 79.37 -31 75.74 -31 72 C-30.34 71.67 -29.68 71.34 -29 71 C-28.59270772 68.67843403 -28.25561323 66.3431213 -28 64 C-27.34 64 -26.68 64 -26 64 C-25.855625 62.700625 -25.71125 61.40125 -25.5625 60.0625 C-25.125 56.125 -25.125 56.125 -24 55 C-23.92773498 53.14712498 -23.9161878 51.29166122 -23.9375 49.4375 C-23.94652344 48.42558594 -23.95554688 47.41367187 -23.96484375 46.37109375 C-23.97644531 45.58863281 -23.98804688 44.80617187 -24 44 C-23.34 43.67 -22.68 43.34 -22 43 C-21.505 45.475 -21.505 45.475 -21 48 C-20.67 45.03 -20.34 42.06 -20 39 C-19.01 39.33 -18.02 39.66 -17 40 C-17 38.02 -17 36.04 -17 34 C-16.34 34 -15.68 34 -15 34 C-14.67 31.69 -14.34 29.38 -14 27 C-13.34 27 -12.68 27 -12 27 C-12 25.02 -12 23.04 -12 21 C-11.01 21 -10.02 21 -9 21 C-9 19.35 -9 17.7 -9 16 C-8.01 15.67 -7.02 15.34 -6 15 C-6 13.02 -6 11.04 -6 9 C-5.01 9 -4.02 9 -3 9 C-3 7.35 -3 5.7 -3 4 C-2.01 3.67 -1.02 3.34 0 3 C0 2.01 0 1.02 0 0 Z M51 94 C51 94.66 51 95.32 51 96 C51.66 96 52.32 96 53 96 C53 95.34 53 94.68 53 94 C52.34 94 51.68 94 51 94 Z M60 151 C60 152.65 60 154.3 60 156 C60.66 156 61.32 156 62 156 C61.67 154.35 61.34 152.7 61 151 C60.67 151 60.34 151 60 151 Z M62 251 C62 251.66 62 252.32 62 253 C62.66 253 63.32 253 64 253 C64 252.34 64 251.68 64 251 C63.34 251 62.68 251 62 251 Z " fill="#FDFDFD" transform="translate(170,1)"/>
<path d="M0 0 C1 1 1 1 1.09765625 4.16015625 C1.08605469 5.44792969 1.07445313 6.73570312 1.0625 8.0625 C1.05347656 9.35285156 1.04445313 10.64320313 1.03515625 11.97265625 C1.02355469 12.97167969 1.01195313 13.97070312 1 15 C1.66 15 2.32 15 3 15 C3.66 19.29 4.32 23.58 5 28 C5.33 26.68 5.66 25.36 6 24 C7.32 24 8.64 24 10 24 C10.84349132 31.47743661 11.39900513 37.80298461 9 45 C9.99 45 10.98 45 12 45 C12 46.98 12 48.96 12 51 C12.99 51 13.98 51 15 51 C15.12375 51.804375 15.2475 52.60875 15.375 53.4375 C15.58125 54.283125 15.7875 55.12875 16 56 C16.99 56.495 16.99 56.495 18 57 C18 58.65 18 60.3 18 62 C18.66 62 19.32 62 20 62 C21.625 63.1875 21.625 63.1875 23 65 C23.1875 67.6875 23.1875 67.6875 23 70 C23.99 70 24.98 70 26 70 C26 72.31 26 74.62 26 77 C26.99 77 27.98 77 29 77 C29 79.31 29 81.62 29 84 C29.66 84 30.32 84 31 84 C31 82.68 31 81.36 31 80 C31.66 80 32.32 80 33 80 C32.67 83.3 32.34 86.6 32 90 C32.66 90 33.32 90 34 90 C34.33 91.32 34.66 92.64 35 94 C35.66 94 36.32 94 37 94 C38.20628008 96.33214148 39.1654738 98.49642139 40 101 C40.99 101 41.98 101 43 101 C43 101.99 43 102.98 43 104 C43.99 104 44.98 104 46 104 C46 104.99 46 105.98 46 107 C47.3303125 107.37125 47.3303125 107.37125 48.6875 107.75 C52.13156256 109.04964625 54.33024803 110.48729227 57 113 C57 113.66 57 114.32 57 115 C57.721875 114.649375 58.44375 114.29875 59.1875 113.9375 C62.3122705 112.89590983 63.88161996 113.10903428 67 114 C67 114.66 67 115.32 67 116 C65.515 116.495 65.515 116.495 64 117 C64.86625 117.12375 65.7325 117.2475 66.625 117.375 C69.90256338 117.98195618 72.84339796 118.94779932 76 120 C77.99369031 120.36920191 79.99279077 120.71325582 82 121 C82 121.66 82 122.32 82 123 C86.62 123 91.24 123 96 123 C96 122.34 96 121.68 96 121 C97.12148437 120.81824219 97.12148437 120.81824219 98.265625 120.6328125 C99.25046875 120.46523438 100.2353125 120.29765625 101.25 120.125 C102.22453125 119.96257812 103.1990625 119.80015625 104.203125 119.6328125 C106.95830926 119.12925967 106.95830926 119.12925967 109.109375 117.9296875 C111 117 111 117 115 117 C113.68 116.67 112.36 116.34 111 116 C111.33 115.01 111.66 114.02 112 113 C118.75 113.875 118.75 113.875 121 115 C121.33 114.01 121.66 113.02 122 112 C123.77734375 110.61328125 123.77734375 110.61328125 125.9375 109.3125 C126.64777344 108.87550781 127.35804688 108.43851562 128.08984375 107.98828125 C130 107 130 107 132 107 C132 106.01 132 105.02 132 104 C132.99 104 133.98 104 135 104 C135 103.01 135 102.02 135 101 C135.99 101 136.98 101 138 101 C138.33 100.01 138.66 99.02 139 98 C139.65129797 96.65909241 140.31513275 95.32407669 141 94 C141.66 94 142.32 94 143 94 C143.33 92.68 143.66 91.36 144 90 C144.66 90 145.32 90 146 90 C145.67 87.03 145.34 84.06 145 81 C145.66 80.67 146.32 80.34 147 80 C147 81.65 147 83.3 147 85 C147.66 85 148.32 85 149 85 C149 82.36 149 79.72 149 77 C149.99 77 150.98 77 152 77 C152 75.68 152 74.36 152 73 C152.99 73 153.98 73 155 73 C155 71.68 155 70.36 155 69 C155.66 69 156.32 69 157 69 C156.67 65.7 156.34 62.4 156 59 C157.98 58.01 157.98 58.01 160 57 C160.33 57.99 160.66 58.98 161 60 C161.66 60 162.32 60 163 60 C163 58.35 163 56.7 163 55 C163.66 54.67 164.32 54.34 165 54 C165.165 53.175 165.33 52.35 165.5 51.5 C165.665 50.675 165.83 49.85 166 49 C166.66 48.67 167.32 48.34 168 48 C168.165 47.175 168.33 46.35 168.5 45.5 C168.665 44.675 168.83 43.85 169 43 C169.66 42.67 170.32 42.34 171 42 C171.40729228 39.67843403 171.74438677 37.3431213 172 35 C172.66 35 173.32 35 174 35 C174.33 32.03 174.66 29.06 175 26 C175.66 26 176.32 26 177 26 C177 20.72 177 15.44 177 10 C177.66 9.67 178.32 9.34 179 9 C179.65772428 5.97065509 179.65772428 5.97065509 180 3 C181.65 2.67 183.3 2.34 185 2 C185.433125 3.4540625 185.433125 3.4540625 185.875 4.9375 C186.64214682 8.10664203 186.64214682 8.10664203 189 9 C189.33333333 10.66666667 189.66666667 12.33333333 190 14 C190.99 14.495 190.99 14.495 192 15 C192.33333333 17.33333333 192.66666667 19.66666667 193 22 C193.66 22.33 194.32 22.66 195 23 C195 25.97 195 28.94 195 32 C195.66 32 196.32 32 197 32 C198.18695418 34.37390836 198.12075833 35.80244951 198.11352539 38.44970703 C198.11344986 39.37051056 198.11337433 40.29131409 198.11329651 41.24002075 C198.10813522 42.23589203 198.10297394 43.23176331 198.09765625 44.2578125 C198.09553383 45.78509476 198.09553383 45.78509476 198.09336853 47.3432312 C198.087759 50.60385035 198.07520488 53.86440151 198.0625 57.125 C198.05748623 59.33203026 198.05292311 61.53906159 198.04882812 63.74609375 C198.03778648 69.16408581 198.02103905 74.58203805 198 80 C197.01 80.33 196.02 80.66 195 81 C195 84.63 195 88.26 195 92 C194.01 92 193.02 92 192 92 C192 94.64 192 97.28 192 100 C191.34 100 190.68 100 190 100 C189.814375 101.4540625 189.814375 101.4540625 189.625 102.9375 C189.41875 103.948125 189.2125 104.95875 189 106 C188.01 106.495 188.01 106.495 187 107 C186.34786708 109.02463255 186.34786708 109.02463255 186 111 C185.34 111 184.68 111 184 111 C183.87625 111.556875 183.7525 112.11375 183.625 112.6875 C182.93456646 115.2421041 182.10518316 117.59460135 181 120 C180.01 120.495 180.01 120.495 179 121 C179 122.32 179 123.64 179 125 C177.68 124.67 176.36 124.34 175 124 C175 125.32 175 126.64 175 128 C174.34 128.33 173.68 128.66 173 129 C172.67 129.99 172.34 130.98 172 132 C171.01 132 170.02 132 169 132 C168.773125 132.556875 168.54625 133.11375 168.3125 133.6875 C165.56525967 138.52787581 161.66751744 141.19948953 157 144 C157 144.66 157 145.32 157 146 C157 146.66 157 147.32 157 148 C155.35 147.67 153.7 147.34 152 147 C152 147.66 152 148.32 152 149 C150.35 149.33 148.7 149.66 147 150 C147 150.66 147 151.32 147 152 C146.01 152.66 145.02 153.32 144 154 C144 154.33 144 154.66 144 155 C142.02 155 140.04 155 138 155 C138 155.99 138 156.98 138 158 C136.02 158 134.04 158 132 158 C132 158.66 132 159.32 132 160 C130.865625 160.12375 129.73125 160.2475 128.5625 160.375 C127.386875 160.58125 126.21125 160.7875 125 161 C124.67 161.66 124.34 162.32 124 163 C121.93734178 163.3911938 119.90556733 163.50674519 117.8125 163.65625 C116.9153125 163.82640625 116.9153125 163.82640625 116 164 C115.67 164.66 115.34 165.32 115 166 C97.84 166 80.68 166 63 166 C62.67 165.34 62.34 164.68 62 164 C60.13507598 163.61004898 60.13507598 163.61004898 58 163.5 C55.8125 163.34375 55.8125 163.34375 54 163 C53.67 162.34 53.34 161.68 53 161 C50.67843403 160.59270772 48.3431213 160.25561323 46 160 C46 159.34 46 158.68 46 158 C44.02 158 42.04 158 40 158 C40 157.01 40 156.02 40 155 C38.02 155 36.04 155 34 155 C34 154.34 34 153.68 34 153 C33.01 152.67 32.02 152.34 31 152 C31 151.34 31 150.68 31 150 C29.35 149.67 27.7 149.34 26 149 C26 148.34 26 147.68 26 147 C24.35 147.33 22.7 147.66 21 148 C21.33 146.68 21.66 145.36 22 144 C21.278125 143.773125 20.55625 143.54625 19.8125 143.3125 C16.43781719 141.73764802 14.51969987 139.71862354 12 137 C11.401875 136.443125 10.80375 135.88625 10.1875 135.3125 C9 134 9 134 9 132 C8.01 132 7.02 132 6 132 C5.67 131.01 5.34 130.02 5 129 C4.34 128.67 3.68 128.34 3 128 C3 126.68 3 125.36 3 124 C1.02 124.495 1.02 124.495 -1 125 C-1 123.68 -1 122.36 -1 121 C-1.66 120.67 -2.32 120.34 -3 120 C-4.34839851 117.0652503 -5.3001048 114.14952839 -6 111 C-6.66 111 -7.32 111 -8 111 C-8.12375 110.360625 -8.2475 109.72125 -8.375 109.0625 C-8.58125 108.381875 -8.7875 107.70125 -9 107 C-9.66 106.67 -10.32 106.34 -11 106 C-11.625 102.9375 -11.625 102.9375 -12 100 C-12.66 100 -13.32 100 -14 100 C-14 97.36 -14 94.72 -14 92 C-14.99 92 -15.98 92 -17 92 C-17 88.37 -17 84.74 -17 81 C-17.99 80.67 -18.98 80.34 -20 80 C-20.02529705 73.48552273 -20.04284444 66.97105807 -20.05493164 60.45654297 C-20.05996909 58.23909024 -20.06679922 56.02164084 -20.07543945 53.80419922 C-20.08753072 50.62206195 -20.0932341 47.43996849 -20.09765625 44.2578125 C-20.10281754 43.26194122 -20.10797882 42.26606995 -20.11329651 41.24002075 C-20.11337204 40.31921722 -20.11344757 39.3984137 -20.11352539 38.44970703 C-20.115746 37.6369632 -20.11796661 36.82421936 -20.12025452 35.98684692 C-20 34 -20 34 -19 32 C-18.34 32 -17.68 32 -17 32 C-17 29.03 -17 26.06 -17 23 C-16.34 22.67 -15.68 22.34 -15 22 C-14.835 20.845 -14.67 19.69 -14.5 18.5 C-14.335 17.345 -14.17 16.19 -14 15 C-13.34 14.67 -12.68 14.34 -12 14 C-11.835 13.175 -11.67 12.35 -11.5 11.5 C-11.335 10.675 -11.17 9.85 -11 9 C-10.34 8.67 -9.68 8.34 -9 8 C-8.855625 7.21625 -8.71125 6.4325 -8.5625 5.625 C-7.46528006 0.50464027 -5.03986548 -0.53051216 0 0 Z M7 29 C6.67 31.31 6.34 33.62 6 36 C6.99 36.495 6.99 36.495 8 37 C8 34.36 8 31.72 8 29 C7.67 29 7.34 29 7 29 Z M159 61 C158.67 62.32 158.34 63.64 158 65 C158.66 65 159.32 65 160 65 C159.67 63.68 159.34 62.36 159 61 Z " fill="#FDFDFD" transform="translate(91,190)"/>
<path d="M0 0 C1.32 0 2.64 0 4 0 C4 7.26 4 14.52 4 22 C2.68 22 1.36 22 0 22 C-1.26798493 17.31315199 -0.91105063 12.96705063 -0.5625 8.1875 C-0.51029297 7.39923828 -0.45808594 6.61097656 -0.40429688 5.79882812 C-0.27540731 3.86548471 -0.13850506 1.93267836 0 0 Z " fill="#000000" transform="translate(232,135)"/>
<path d="M0 0 C1.32 0 2.64 0 4 0 C4.22134176 2.12368444 4.42670007 4.24904024 4.625 6.375 C4.74101563 7.55835938 4.85703125 8.74171875 4.9765625 9.9609375 C4.98429687 10.96382812 4.99203125 11.96671875 5 13 C4.34 13.66 3.68 14.32 3 15 C2.34 13.35 1.68 11.7 1 10 C0.67 10 0.34 10 0 10 C-0.74926071 6.33694766 -1.2380014 3.57644848 0 0 Z " fill="#020202" transform="translate(97,214)"/>
<path d="M0 0 C1.67542976 0.28604898 3.34385343 0.61781233 5 1 C5.1953125 7.0546875 5.1953125 7.0546875 5 9 C4.34 9.66 3.68 10.32 3 11 C3 10.34 3 9.68 3 9 C2.34 8.67 1.68 8.34 1 8 C1.33 7.34 1.66 6.68 2 6 C1.34 6 0.68 6 0 6 C-0.38218767 4.34385343 -0.71395102 2.67542976 -1 1 C-0.67 0.67 -0.34 0.34 0 0 Z " fill="#030303" transform="translate(221,89)"/>
<path d="M0 0 C0.66 0.33 1.32 0.66 2 1 C2 2.98 2 4.96 2 7 C0.35 7.33 -1.3 7.66 -3 8 C-3.33 7.01 -3.66 6.02 -4 5 C-3.67 4.34 -3.34 3.68 -3 3 C-2.34 3 -1.68 3 -1 3 C-0.67 2.01 -0.34 1.02 0 0 Z " fill="#000000" transform="translate(235,251)"/>
<path d="M0 0 C0.99 0.33 1.98 0.66 3 1 C3.33 1.99 3.66 2.98 4 4 C3.01 4.33 2.02 4.66 1 5 C0.34 5.99 -0.32 6.98 -1 8 C-2 7 -2 7 -2.1875 4.5625 C-2 2 -2 2 0 0 Z " fill="#080808" transform="translate(249,247)"/>
<path d="M0 0 C0.66 0.33 1.32 0.66 2 1 C2 3.64 2 6.28 2 9 C1.01 9.495 1.01 9.495 0 10 C-0.66 9.34 -1.32 8.68 -2 8 C-1.34 8 -0.68 8 0 8 C0 5.36 0 2.72 0 0 Z " fill="#0B0B0B" transform="translate(167,112)"/>
<path d="M0 0 C2.31 0.33 4.62 0.66 7 1 C3.77208445 3.1519437 2.71599191 3.20086443 -1 3 C-0.67 2.01 -0.34 1.02 0 0 Z " fill="#040404" transform="translate(203,303)"/>
<path d="M0 0 C0.33 0 0.66 0 1 0 C1.33 3.3 1.66 6.6 2 10 C1.01 10 0.02 10 -1 10 C-0.67 6.7 -0.34 3.4 0 0 Z " fill="#080808" transform="translate(113,226)"/>
<path d="M0 0 C0.99 0.33 1.98 0.66 3 1 C2.34 2.65 1.68 4.3 1 6 C0.67 6 0.34 6 0 6 C0 4.02 0 2.04 0 0 Z " fill="#000000" transform="translate(148,35)"/>
<path d="M0 0 C2.64 0 5.28 0 8 0 C8 0.33 8 0.66 8 1 C5.36 1 2.72 1 0 1 C0 0.67 0 0.34 0 0 Z " fill="#020202" transform="translate(193,359)"/>
<path d="M0 0 C2.64 0 5.28 0 8 0 C8 0.33 8 0.66 8 1 C5.36 1 2.72 1 0 1 C0 0.67 0 0.34 0 0 Z " fill="#010101" transform="translate(159,359)"/>
<path d="M0 0 C0.66 0 1.32 0 2 0 C2 0.99 2 1.98 2 3 C1.34 3 0.68 3 0 3 C0 2.01 0 1.02 0 0 Z " fill="#030303" transform="translate(137,277)"/>
<path d="M0 0 C2 1 2 1 2 1 Z " fill="#000000" transform="translate(176,0)"/>
</svg>
